<?xml version="1.0" encoding="UTF-8"?>
<!DOCTYPE svg PUBLIC "-//W3C//DTD SVG 1.1//EN" "http://www.w3.org/Graphics/SVG/1.1/DTD/svg11.dtd">
<!-- Creator: CorelDRAW -->
<svg xmlns="http://www.w3.org/2000/svg" xml:space="preserve" width="30.5556in" height="30.5556in" version="1.1" style="shape-rendering:geometricPrecision; text-rendering:geometricPrecision; image-rendering:optimizeQuality; fill-rule:evenodd; clip-rule:evenodd"
viewBox="0 0 30555.55 30555.55"
 xmlns:xlink="http://www.w3.org/1999/xlink"
 xmlns:xodm="http://www.corel.com/coreldraw/odm/2003">
 <defs>
  <style type="text/css">
   <![CDATA[
    .fil0 {fill:#FEFEFE;fill-rule:nonzero}
    .fil4 {fill:#DBE1E9;fill-rule:nonzero}
    .fil5 {fill:#CAD2DA;fill-rule:nonzero}
    .fil7 {fill:#B3C0CD;fill-rule:nonzero}
    .fil3 {fill:#9DAAB5;fill-rule:nonzero}
    .fil6 {fill:#79CEDD;fill-rule:nonzero}
    .fil1 {fill:#4261AB;fill-rule:nonzero}
    .fil2 {fill:#27333A;fill-rule:nonzero}
   ]]>
  </style>
    <clipPath id="id0">
     <rect x="11678.38" y="19625.43" width="6997.21" height="4455.77"/>
    </clipPath>
 </defs>
 <g id="Layer_x0020_1">
  <metadata id="CorelCorpID_0Corel-Layer"/>
  <polygon class="fil0" points="8493.02,25468.59 39048.6,25468.59 39048.6,-5086.99 8493.02,-5086.99 "/>
  <g id="_2448512163856">
   <path class="fil1" d="M28319.41 15277.77c0,6197.51 -5838.88,11221.54 -13041.63,11221.54 -2499.85,0 -4835.46,-605.28 -6819.68,-1654.73 -868.37,758.18 -1997.59,1217.64 -3150.31,1263.46 594.57,-773.32 934.64,-1737.63 966.47,-2712.07 -2488.1,-2043.2 -4038.15,-4924.86 -4038.15,-8118.2 0,-6197.56 5838.95,-11221.62 13041.67,-11221.62 7202.74,0 13041.63,5024.07 13041.63,11221.62z"/>
   <path class="fil0" d="M26145.94 15277.77c0,3827.51 -2672.52,7117.91 -6499.4,8565 -1336.94,505.7 -2814.74,786.41 -4368.76,786.41 -1554.04,0 -3031.85,-280.71 -4368.72,-786.41 -3826.94,-1447.09 -6499.38,-4737.49 -6499.38,-8565 0,-5164.56 4865.81,-9351.42 10868.1,-9351.42 6002.39,0 10868.16,4186.86 10868.16,9351.42z"/>
   <path class="fil2" d="M19722.92 8832.15l0 245.36c0,186 -203.06,299.72 -362.35,203.7 -524.03,-315.76 -1125.56,-484.47 -1753.33,-484.47l-4658.96 0c-627.55,0 -1229.18,168.71 -1753.21,484.47 -159.34,96.02 -362.4,-17.7 -362.4,-203.7l0 -245.36c641.98,-348.46 1364.53,-533.42 2115.61,-533.42l4658.96 0c751.1,0 1473.75,184.96 2115.69,533.42z"/>
   <path class="fil3" d="M21755.9 12201.98l0 975.03 -445.94 0 0 -975.03c0,-988.9 -385.12,-1918.81 -1084.52,-2617.93 -699.32,-699.43 -1629.03,-1084.55 -2618.2,-1084.55l-4658.96 0c-989.05,0 -1918.81,385.12 -2618.18,1084.55 -699.36,699.11 -1084.48,1629.02 -1084.48,2617.93l0 975.03 -445.92 0 0 -975.03c0,-1108.1 431.49,-2149.78 1215.14,-2933.48 783.49,-783.36 1825.31,-1214.93 2933.44,-1214.93l4658.96 0c1108.19,0 2149.99,431.57 2933.46,1214.93 783.63,783.7 1215.2,1825.38 1215.2,2933.48z"/>
   <path class="fil4" d="M20023.35 20954.44c0,818.33 -76.13,1567.77 -217.37,2244.87 -14.17,69.17 -29.31,137.35 -45.01,205 -34.99,149.86 -73.05,296.12 -114.43,438.46 -1336.94,505.7 -2814.74,786.41 -4368.76,786.41 -1554.04,0 -3031.85,-280.71 -4368.72,-786.41 -41.47,-142.34 -79.52,-288.6 -114.45,-438.46 -15.77,-67.65 -30.93,-135.82 -45.06,-205 -141.22,-677.09 -217.3,-1426.53 -217.3,-2244.87 0,-1820.83 1904.26,-2987.78 4745.53,-2987.78 2841.25,0 4745.57,1166.94 4745.57,2987.78z"/>
   <path class="fil5" d="M13347.31 17401.93l0 1140.28c0,604.45 864.37,1094.59 1930.48,1094.59 1066.11,0 1930.42,-490.14 1930.42,-1094.59l0 -1140.28 -3860.89 0z"/>
   <path class="fil3" d="M8422.57 15496.65l-242.28 -41.66c-391.04,-67.5 -679.68,-444.02 -679.68,-886.82l0 -864.99c0,-442.8 288.64,-819.37 679.68,-886.76l242.28 -41.74 0 2721.96z"/>
   <path class="fil5" d="M17407.51 10875.37c0,815.3 -915.69,1476.2 -2045.41,1476.2 -1129.72,0 -2045.45,-660.91 -2045.45,-1476.2 0,-815.3 0,-1476.27 2045.45,-1476.27 2045.41,0 2045.41,660.98 2045.41,1476.27z"/>
   <path class="fil4" d="M9664.89 15662.91c0,696.53 381.33,1337.49 994.07,1669.02 778.89,421.26 2163.18,811.67 4618.83,811.67 2455.69,0 3840,-390.41 4618.89,-811.67 612.63,-331.53 994,-972.49 994,-1669.02l0 -3054.41c0,-696.61 -381.37,-1337.61 -994,-1669.02 -778.89,-421.24 -2163.2,-811.69 -4618.89,-811.69 -2455.65,0 -3839.94,390.45 -4618.83,811.69 -612.74,331.4 -994.07,972.41 -994.07,1669.02l0 3054.41z"/>
   <path class="fil2" d="M15277.78 17590.83c-2452.82,0 -3711.93,-402.52 -4336.27,-740.15 -421.09,-227.78 -682.68,-667.08 -682.68,-1146.53l0 -2343.28c0,-479.48 261.59,-918.81 682.68,-1146.56 624.36,-337.67 1883.47,-740.2 4336.27,-740.2 2452.78,0 3711.95,402.53 4336.27,740.2 421.09,227.74 682.61,667.08 682.61,1146.56l0 2343.28c0,479.45 -261.52,918.75 -682.61,1146.53 -624.31,337.63 -1883.49,740.15 -4336.27,740.15z"/>
   <path class="fil6" d="M13831.09 14603.17c0,550.56 -446.27,276.54 -996.8,276.54 -550.5,0 -996.77,274.02 -996.77,-276.54 0,-550.39 446.27,-996.75 996.77,-996.75 550.52,0 996.8,446.36 996.8,996.75z"/>
   <path class="fil6" d="M18718.07 14603.17c0,423.07 -263.75,359.31 -635.69,307.1 -111.95,-15.7 -233.76,-30.56 -361.25,-30.56 -550.42,0 -996.67,274.02 -996.67,-276.54 0,-550.54 446.25,-996.73 996.67,-996.73 133.74,0 261.25,26.29 377.65,74.07 363.19,148.72 619.3,505.89 619.3,922.67z"/>
   <path class="fil6" d="M15888.63 15842.35c0,168.61 -68.48,321.26 -179.04,431.8 -110.56,110.56 -263.19,178.9 -431.8,178.9 -337.36,0 -610.84,-273.48 -610.84,-610.7 0,-24.02 9.87,-45.97 25.56,-61.8 15.85,-15.83 37.78,-25.56 61.82,-25.56l1046.93 0c48.2,0 87.38,39.16 87.38,87.35z"/>
   <path class="fil7" d="M8704.71 15944.99l709.67 0c138.34,0 250.5,-112.22 250.5,-250.55l0 -3117.52c0,-138.34 -112.16,-250.48 -250.5,-250.48l-709.67 0c-272.19,0 -492.89,220.66 -492.89,492.87l0 2632.78c0,272.21 220.7,492.91 492.89,492.91z"/>
   <path class="fil3" d="M22132.9 15496.65l242.44 -41.66c390.95,-67.5 679.64,-444.02 679.64,-886.82l0 -864.99c0,-442.8 -288.69,-819.37 -679.64,-886.76l-242.44 -41.74 0 2721.96z"/>
   <path class="fil7" d="M21850.88 15944.99l-709.63 0c-138.51,0 -250.57,-112.22 -250.57,-250.55l0 -3117.52c0,-138.34 112.06,-250.48 250.57,-250.48l709.63 0c272.23,0 492.8,220.66 492.8,492.87l0 2632.78c0,272.21 -220.57,492.91 -492.8,492.91z"/>
   <g style="clip-path:url(#id0)">
    <image id="cty-minh-tam.png" x="11678.38" y="19625.43" width="6997.21" height="4455.77" xlink:href="mtchatbot_avatar_Images\mtchatbot_avatar_ImgID1.png"/>
   </g>
  </g>
 </g>
</svg>
